<?xml version="1.0" encoding="utf-8"?><svg viewBox="0 0 800 800" xmlns="http://www.w3.org/2000/svg" xmlns:xlink="http://www.w3.org/1999/xlink"><style>:root>svg{display:none}:root>svg:target{display:block}</style><svg fill="none" viewBox="0 0 24 24" id="arrow-right" xmlns="http://www.w3.org/2000/svg"><path d="M17 12H3" stroke="currentColor" stroke-width="2" stroke-linecap="round" stroke-linejoin="round"/><path d="M21.715 11.797l-5.45-3.893a.8.8 0 00-1.265.65v6.891a.8.8 0 001.265.651l5.45-3.893a.25.25 0 000-.406z" fill="currentColor"/></svg><svg fill="none" viewBox="0 0 24 24" id="cancel" xmlns="http://www.w3.org/2000/svg"><path fill-rule="evenodd" clip-rule="evenodd" d="M7.366 7.366a1.25 1.25 0 011.768 0L12 10.232l2.866-2.866a1.25 1.25 0 011.768 1.768L13.768 12l2.866 2.866a1.25 1.25 0 01-1.768 1.768L12 13.768l-2.866 2.866a1.25 1.25 0 01-1.768-1.768L10.232 12 7.366 9.134a1.25 1.25 0 010-1.768z" fill="currentColor"/></svg><svg fill="none" viewBox="0 0 6 7" id="cancel-small" xmlns="http://www.w3.org/2000/svg"><path fill-rule="evenodd" clip-rule="evenodd" d="M.22.72a.75.75 0 011.06 0L3 2.44 4.72.72a.75.75 0 011.06 1.06L4.06 3.5l1.72 1.72a.75.75 0 01-1.06 1.06L3 4.56 1.28 6.28A.75.75 0 01.22 5.22L1.94 3.5.22 1.78a.75.75 0 010-1.06z" fill="currentColor"/></svg><svg fill="none" viewBox="0 0 24 24" id="chart" xmlns="http://www.w3.org/2000/svg"><path fill-rule="evenodd" clip-rule="evenodd" d="M18.5 5a1.5 1.5 0 00-3 0v12a1.5 1.5 0 003 0V5zM12 7.5A1.5 1.5 0 0113.5 9v8a1.5 1.5 0 01-3 0V9A1.5 1.5 0 0112 7.5zm-5 4A1.5 1.5 0 018.5 13v4a1.5 1.5 0 01-3 0v-4A1.5 1.5 0 017 11.5z" fill="currentColor"/></svg><svg fill="none" viewBox="0 0 24 24" id="chevron-down" xmlns="http://www.w3.org/2000/svg"><path d="M18 9l-6 6-6-6" stroke="currentColor" stroke-width="2"/></svg><svg fill="none" viewBox="0 0 24 24" id="chevron-down-grey" xmlns="http://www.w3.org/2000/svg"><path d="M18 9l-6 6-6-6" stroke="#727693" stroke-width="2"/></svg><svg fill="none" viewBox="0 0 24 24" id="chevron-left" xmlns="http://www.w3.org/2000/svg"><path d="M15 6l-6 6 6 6" stroke="currentColor" stroke-width="2"/></svg><svg fill="none" viewBox="0 0 24 25" id="chevron-right" xmlns="http://www.w3.org/2000/svg"><path d="M9 6.5l6 6-6 6" stroke="currentColor" stroke-width="2"/></svg><svg fill="none" viewBox="0 0 24 24" id="chevron-up" xmlns="http://www.w3.org/2000/svg"><path d="M18 15l-6-6-6 6" stroke="currentColor" stroke-width="2"/></svg><svg fill="none" viewBox="0 0 24 24" id="date" xmlns="http://www.w3.org/2000/svg"><rect x="3" y="6" width="18" height="15" rx="2" stroke="currentColor" stroke-width="2"/><path d="M3 10c0-1.886 0-2.828.586-3.414C4.172 6 5.114 6 7 6h10c1.886 0 2.828 0 3.414.586C21 7.172 21 8.114 21 10H3z" fill="currentColor"/><path d="M7 3v3M17 3v3" stroke="currentColor" stroke-width="2" stroke-linecap="round"/><rect x="7" y="12" width="4" height="2" rx=".5" fill="currentColor"/><rect x="7" y="16" width="4" height="2" rx=".5" fill="currentColor"/><rect x="13" y="12" width="4" height="2" rx=".5" fill="currentColor"/><rect x="13" y="16" width="4" height="2" rx=".5" fill="currentColor"/></svg><svg fill="none" viewBox="0 0 24 24" id="desk" xmlns="http://www.w3.org/2000/svg"><path d="M15.5 3v2.625M8.5 3v2.625" stroke="currentColor" stroke-width="1.5" stroke-linecap="round"/><path fill-rule="evenodd" clip-rule="evenodd" d="M13.47 4h-3.058v1.765a2 2 0 11-4 0V4.094c-.733.096-1.245.29-1.637.681C4 5.551 4 6.798 4 9.295v4.41c0 2.497 0 3.744.775 4.52.776.775 2.023.775 4.52.775h5.293c2.496 0 3.744 0 4.519-.775.775-.776.775-2.023.775-4.52v-4.41c0-2.497 0-3.744-.775-4.52-.392-.391-.904-.585-1.636-.681v1.67a2 2 0 11-4 0V4zm-6.058 7.059a1 1 0 011-1h7.059a1 1 0 110 2H8.41a1 1 0 01-1-1zm1 2.53a1 1 0 000 2h7.059a1 1 0 100-2H8.41z" fill="currentColor"/></svg><svg fill="none" viewBox="0 0 24 24" id="done-round" xmlns="http://www.w3.org/2000/svg"><path d="M5 14l3.233 2.425a1 1 0 001.374-.167L18 6" stroke="currentColor" stroke-width="2" stroke-linecap="round"/></svg><svg viewBox="0 0 24 24" id="dots" xmlns="http://www.w3.org/2000/svg"><path d="M12 10a2 2 0 11-2 2 2 2 0 012-2zm-8 4a2 2 0 10-2-2 2 2 0 002 2zm16-4a2 2 0 102 2 2 2 0 00-2-2z"/></svg><svg fill="none" viewBox="0 0 24 24" id="file-fill" xmlns="http://www.w3.org/2000/svg"><path fill-rule="evenodd" clip-rule="evenodd" d="M12 2v5.054c0 .424 0 .837.046 1.177.051.383.177.82.54 1.183.363.363.8.489 1.184.54.34.046.752.046 1.176.046H20v6c0 2.828 0 4.243-.879 5.121C18.243 22 16.828 22 14 22h-4c-2.828 0-4.243 0-5.121-.879C4 20.243 4 18.828 4 16V8c0-2.828 0-4.243.879-5.121C5.757 2 7.172 2 10 2h2zm2 .005V7c0 .5.002.774.028.964v.007l.008.001c.19.026.464.028.964.028h4.995c-.01-.412-.043-.684-.147-.937-.152-.367-.441-.657-1.02-1.235l-2.656-2.656c-.579-.578-.867-.868-1.235-1.02-.253-.105-.525-.137-.937-.147z" fill="currentColor"/></svg><svg fill="none" viewBox="0 0 24 24" id="fire" xmlns="http://www.w3.org/2000/svg"><g clip-path="url(#aoclip0_18_1198)"><path d="M19.48 12.35c-1.57-4.08-7.16-4.3-5.81-10.23.1-.44-.37-.78-.75-.55C9.29 3.71 6.68 8 8.87 13.62c.18.46-.36.89-.75.59-1.81-1.37-2-3.34-1.84-4.75.06-.52-.62-.77-.91-.34C4.69 10.16 4 11.84 4 14.37c.38 5.6 5.11 7.32 6.81 7.54 2.43.31 5.06-.14 6.95-1.87 2.08-1.93 2.84-5.01 1.72-7.69zm-9.28 5.03c1.44-.35 2.18-1.39 2.38-2.31.33-1.43-.96-2.83-.09-5.09.33 1.87 3.27 3.04 3.27 5.08.08 2.53-2.66 4.7-5.56 2.32z" fill="currentColor"/></g><defs><clipPath id="aoclip0_18_1198"><path fill="#fff" d="M0 0h24v24H0z"/></clipPath></defs></svg><svg fill="none" viewBox="0 0 24 24" id="flag" xmlns="http://www.w3.org/2000/svg"><path d="M6 15V5.5c0-.236 0-.354.073-.427C6.146 5 6.264 5 6.5 5h10.293c.514 0 .77 0 .834.154.064.155-.117.336-.48.7l-3.864 3.863c-.133.133-.2.2-.2.283 0 .083.066.15.2.283l3.863 3.863c.364.364.545.545.481.7-.063.154-.32.154-.834.154H6zm0 0v4" stroke="currentColor" stroke-linecap="round"/></svg><svg fill="none" viewBox="0 0 48 48" id="hamburger" xmlns="http://www.w3.org/2000/svg"><path d="M7.95 11.95h32M7.95 23.95h32M7.95 35.95h32" stroke="currentColor" stroke-width="4" stroke-linecap="round" stroke-linejoin="round"/></svg><svg viewBox="0 0 20 20" fill="none" id="hamburger-list" xmlns="http://www.w3.org/2000/svg"><path fill="#000" fill-rule="evenodd" d="M18 5a1 1 0 100-2H2a1 1 0 000 2h16zm0 4a1 1 0 100-2h-8a1 1 0 100 2h8zm1 3a1 1 0 01-1 1H2a1 1 0 110-2h16a1 1 0 011 1zm-1 5a1 1 0 100-2h-8a1 1 0 100 2h8z"/></svg><svg fill="none" viewBox="0 0 24 24" id="home" xmlns="http://www.w3.org/2000/svg"><path fill-rule="evenodd" clip-rule="evenodd" d="M5.274 10.126C5 10.723 5 11.402 5 12.76V17c0 1.887 0 2.83.586 3.415.531.532 1.357.58 2.914.585V16a2 2 0 012-2h3a2 2 0 012 2v5c1.557-.005 2.383-.054 2.914-.586C19 19.828 19 18.886 19 17v-4.24c0-1.358 0-2.037-.274-2.634-.275-.597-.79-1.038-1.821-1.922l-1-.857C14.04 5.75 13.11 4.95 12 4.95c-1.11 0-2.041.799-3.905 2.396l-1 .857c-1.03.884-1.546 1.325-1.82 1.922zM13.5 21v-5h-3v5h3z" fill="currentColor"/></svg><svg fill="none" viewBox="0 0 24 24" id="logout" xmlns="http://www.w3.org/2000/svg"><path fill-rule="evenodd" clip-rule="evenodd" d="M8.379 2.669l3.69-.58c3.22-.506 4.83-.76 5.88.139C19 3.126 19 4.756 19 8.016V11h-5.92l2.7-3.376-1.56-1.25-4 5-.5.626.5.624 4 5 1.56-1.25L13.08 13H19v2.983c0 3.26 0 4.89-1.05 5.788-1.05.898-2.66.645-5.881.14l-3.69-.58c-1.613-.254-2.419-.38-2.899-.942C5 19.828 5 19.012 5 17.38V6.62c0-1.632 0-2.449.48-3.01.48-.561 1.286-.688 2.899-.941z" fill="currentColor"/></svg><svg fill="none" viewBox="0 0 24 24" id="no-view" xmlns="http://www.w3.org/2000/svg"><path fill-rule="evenodd" clip-rule="evenodd" d="M15.92 12.799a4 4 0 00-4.719-4.719l4.72 4.719zM8.667 9.788a4 4 0 005.545 5.545l-1.474-1.474a2 2 0 01-2.598-2.598L8.668 9.789z" fill="currentColor"/><path fill-rule="evenodd" clip-rule="evenodd" d="M16.52 17.64l-1.47-1.469c-.973.51-2.003.829-3.05.829-1.526 0-3.014-.678-4.341-1.632-1.32-.95-2.395-2.112-3.075-2.938-.1-.121-.175-.212-.236-.291a2.048 2.048 0 01-.1-.139c.02-.031.05-.075.1-.139.061-.08.136-.17.236-.291.665-.808 1.71-1.938 2.99-2.875l-1.43-1.43C4.796 8.297 3.722 9.47 3.04 10.3l-.074.088c-.313.375-.737.883-.737 1.613s.424 1.238.737 1.613l.074.088c.74.899 1.94 2.203 3.45 3.29C7.995 18.073 9.89 19 12 19c1.67 0 3.206-.581 4.52-1.36zM8.806 5.685C9.79 5.27 10.864 5 12 5c2.11 0 4.006.927 5.509 2.009 1.51 1.087 2.71 2.391 3.45 3.29l.074.088c.314.375.737.883.737 1.613s-.423 1.238-.737 1.613l-.073.088a20.49 20.49 0 01-2.015 2.123l-1.416-1.416a18.427 18.427 0 002.123-2.27c.049-.063.08-.107.1-.138a2.034 2.034 0 00-.1-.139c-.062-.08-.136-.17-.236-.291-.68-.826-1.756-1.989-3.075-2.938C15.014 7.678 13.526 7 12 7c-.551 0-1.097.088-1.633.246l-1.56-1.56z" fill="currentColor"/><path d="M5 2l16 16" stroke="currentColor" stroke-width="2"/></svg><svg fill="none" viewBox="0 0 24 24" id="play" xmlns="http://www.w3.org/2000/svg"><path d="M17.83 11.18l-7.256-5.079A1 1 0 009 6.921v10.158a1 1 0 001.573.82l7.257-5.08a1 1 0 000-1.638z" fill="currentColor"/></svg><svg fill="none" viewBox="0 0 24 24" id="progress" xmlns="http://www.w3.org/2000/svg"><path d="M12 6V3M12 21v-2M19 12h2M3 12h3M17.657 6.343l.707-.707M5.636 18.364L7.05 16.95M16.95 16.95l1.414 1.414M5.636 5.636l2.121 2.121" stroke="currentColor" stroke-width="2" stroke-linecap="round" stroke-linejoin="round"/></svg><svg fill="none" viewBox="0 0 24 24" id="question" xmlns="http://www.w3.org/2000/svg"><circle cx="12" cy="12" r="9" stroke="currentColor" stroke-width="2"/><circle cx="12" cy="18" r=".5" fill="currentColor" stroke="currentColor"/><path d="M12 16v-1.419c0-.944.604-1.782 1.5-2.081v0a2.194 2.194 0 001.5-2.081v-.513C15 8.3 13.7 7 12.094 7H12a3 3 0 00-3 3v0" stroke="currentColor" stroke-width="2"/></svg><svg fill="none" viewBox="0 0 24 24" id="roi" xmlns="http://www.w3.org/2000/svg"><g clip-path="url(#ayclip0_18_789)"><path d="M4.448 9.758l.776.123a7.893 7.893 0 012.53-4.014 7.849 7.849 0 014.786-1.86 7.857 7.857 0 015.66 2.089 7.859 7.859 0 012.526 5.477 7.807 7.807 0 01-.885 3.953l-.02-.031a2.008 2.008 0 00-1.239-.884 6.319 6.319 0 00.611-2.978 6.33 6.33 0 00-2.033-4.414 6.329 6.329 0 00-4.56-1.68 6.36 6.36 0 00-5.853 4.583l.624.098a.389.389 0 01.2.674l-1.743 1.55a.39.39 0 01-.609-.119L4.053 10.34a.388.388 0 01.395-.58zm7.758 4.35c-.085-.007-.137-.016-.2-.026l-.351-.05-.217-.037a5.02 5.02 0 01-.413-.091l-.082-.022v-1.357l.384.031.281.017.296.013.3.01.29.005.27.001c.083 0 .155-.002.217-.008.063-.006.12-.014.17-.026a.545.545 0 00.12-.04.26.26 0 00.073-.05.154.154 0 00.036-.056.271.271 0 00.013-.09v-.089c0-.072-.023-.124-.069-.156a.32.32 0 00-.093-.046.39.39 0 00-.115-.015h-.396c-.298 0-.563-.034-.793-.1a1.59 1.59 0 01-.594-.308 1.266 1.266 0 01-.368-.558 2.428 2.428 0 01-.12-.804v-.247c0-.287.045-.54.132-.759.09-.222.224-.407.402-.555.13-.107.252-.194.397-.262.123-.058.26-.101.43-.13v-.601h1.251v.578c.208.016.368.045.57.082l.106.018a9.573 9.573 0 01.496.102l.085.021v1.359l-.12-.011a17.79 17.79 0 00-1.176-.063c-.116-.002-.24-.004-.37-.004-.149 0-.435.004-.548.117-.071.071-.074.292-.037.38.056.131.23.147.354.147h.493c.181 0 .35.018.503.053.156.036.297.09.422.16.25.143.44.338.567.584.062.12.11.25.141.39.031.137.047.283.047.434v.246c0 .244-.022.46-.065.65a1.495 1.495 0 01-.2.494c-.09.136-.199.25-.327.342a1.395 1.395 0 01-.438.208l-.042.012c-.159.046-.275.08-.46.1v.651h-1.252v-.645zm-4.535 5.311v-4.552c2.246 0 2.628-.102 4.652 1.173h1.591c.72.042 1.097.773.397 1.252-.557.41-1.293.386-2.048.318-.52-.025-.543.674 0 .676.189.015.393-.03.572-.03.941 0 1.717-.18 2.191-.924l.238-.556 2.367-1.173c1.184-.39 2.026.849 1.153 1.71a31.01 31.01 0 01-5.27 3.101c-1.305.795-2.61.767-3.915 0L7.67 19.42zm-3.507-4.99h2.89v5.448h-2.89v-5.448z" fill="currentColor"/></g><defs><clipPath id="ayclip0_18_789"><path fill="#fff" transform="translate(4 4)" d="M0 0h16.732v17H0z"/></clipPath></defs></svg><svg fill="none" viewBox="0 0 24 24" id="setup" xmlns="http://www.w3.org/2000/svg"><path fill-rule="evenodd" clip-rule="evenodd" d="M13.922 4.225c.058.577.087.865.18 1.04a1 1 0 001.175.486c.188-.057.413-.241.861-.608.237-.194.356-.291.478-.346a1 1 0 01.905.046c.116.066.224.174.44.391l.805.804c.217.217.325.325.392.441a1 1 0 01.045.905c-.055.122-.152.24-.346.478-.367.448-.55.673-.608.861a1 1 0 00.487 1.175c.174.093.462.122 1.039.18.305.03.457.045.582.093a1 1 0 01.608.672c.035.129.035.282.035.588v1.138c0 .306 0 .46-.035.588a1 1 0 01-.608.672c-.125.048-.277.063-.582.093-.577.058-.865.087-1.039.18a1 1 0 00-.487 1.175c.058.188.241.413.608.86.194.238.291.357.346.478a1 1 0 01-.046.906c-.066.115-.174.224-.39.44l-.805.805c-.217.216-.325.325-.441.391a1 1 0 01-.905.045c-.122-.054-.24-.151-.478-.345-.448-.367-.673-.55-.861-.608a1 1 0 00-1.175.486c-.093.174-.122.463-.18 1.04-.03.305-.045.457-.093.582a1 1 0 01-.672.608c-.129.035-.282.035-.588.035H11.43c-.306 0-.46 0-.588-.035a1 1 0 01-.672-.608c-.048-.125-.063-.277-.093-.582-.058-.577-.087-.865-.18-1.04a1 1 0 00-1.175-.486c-.188.057-.413.24-.861.608-.237.194-.356.291-.478.346a1 1 0 01-.905-.046c-.116-.066-.224-.174-.44-.391l-.805-.804c-.217-.217-.325-.325-.392-.441a1 1 0 01-.045-.905c.055-.122.152-.24.346-.478.367-.449.55-.673.608-.861a1 1 0 00-.487-1.175c-.174-.093-.462-.122-1.039-.18-.305-.03-.457-.045-.582-.093a1 1 0 01-.608-.672C3 13.028 3 12.875 3 12.57V11.43c0-.306 0-.46.035-.588a1 1 0 01.608-.672c.125-.048.277-.063.582-.093.577-.058.866-.087 1.04-.18a1 1 0 00.486-1.175c-.057-.188-.24-.413-.608-.861-.194-.238-.291-.356-.346-.478a1 1 0 01.045-.905c.067-.116.175-.225.392-.441l.804-.804c.217-.217.325-.326.441-.392a1 1 0 01.905-.045c.122.054.24.152.478.346.448.367.673.55.861.608a1 1 0 001.176-.487c.092-.174.12-.462.179-1.039.03-.305.045-.457.093-.582a1 1 0 01.672-.608C10.972 3 11.125 3 11.43 3h1.138c.306 0 .46 0 .588.035a1 1 0 01.672.608c.048.125.063.277.093.582zM12 15a3 3 0 100-6 3 3 0 000 6z" fill="currentColor"/></svg><svg fill="none" viewBox="0 0 35 35" id="user-fill" xmlns="http://www.w3.org/2000/svg"><path d="M29.067 28.214c.59-.122.94-.738.672-1.277-.867-1.739-2.332-3.267-4.249-4.41-2.292-1.369-5.1-2.11-7.99-2.11-2.89 0-5.698.741-7.99 2.11-1.916 1.143-3.382 2.671-4.249 4.41-.268.54.083 1.155.672 1.277l3.406.71a40 40 0 0016.322 0l3.406-.71z" fill="currentColor"/><circle cx="17.5" cy="11.667" fill="currentColor" r="7.292"/></svg><svg fill="none" viewBox="0 0 24 24" id="view" xmlns="http://www.w3.org/2000/svg"><circle cx="12" cy="12" r="3" stroke="currentColor" stroke-width="2"/><path d="M20.188 10.934c.388.472.582.707.582 1.066 0 .359-.194.594-.582 1.066C18.768 14.79 15.636 18 12 18c-3.636 0-6.768-3.21-8.188-4.934-.388-.472-.582-.707-.582-1.066 0-.359.194-.594.582-1.066C5.232 9.21 8.364 6 12 6c3.636 0 6.768 3.21 8.188 4.934z" stroke="currentColor" stroke-width="2"/></svg></svg>