<svg width="24" height="25" viewBox="0 0 24 25" fill="none" xmlns="http://www.w3.org/2000/svg">
<g clip-path="url(#clip0_2288_11341)">
<path d="M-0.000213623 22.2502C-0.000213623 23.4924 1.15157 24.5002 2.57121 24.5002H21.4284C22.848 24.5002 23.9998 23.4924 23.9998 22.2502V9.50024H-0.000213623V22.2502ZM17.1426 13.0627C17.1426 12.7534 17.4319 12.5002 17.7855 12.5002H19.9284C20.2819 12.5002 20.5712 12.7534 20.5712 13.0627V14.9377C20.5712 15.2471 20.2819 15.5002 19.9284 15.5002H17.7855C17.4319 15.5002 17.1426 15.2471 17.1426 14.9377V13.0627ZM17.1426 19.0627C17.1426 18.7534 17.4319 18.5002 17.7855 18.5002H19.9284C20.2819 18.5002 20.5712 18.7534 20.5712 19.0627V20.9377C20.5712 21.2471 20.2819 21.5002 19.9284 21.5002H17.7855C17.4319 21.5002 17.1426 21.2471 17.1426 20.9377V19.0627ZM10.2855 13.0627C10.2855 12.7534 10.5748 12.5002 10.9284 12.5002H13.0712C13.4248 12.5002 13.7141 12.7534 13.7141 13.0627V14.9377C13.7141 15.2471 13.4248 15.5002 13.0712 15.5002H10.9284C10.5748 15.5002 10.2855 15.2471 10.2855 14.9377V13.0627ZM10.2855 19.0627C10.2855 18.7534 10.5748 18.5002 10.9284 18.5002H13.0712C13.4248 18.5002 13.7141 18.7534 13.7141 19.0627V20.9377C13.7141 21.2471 13.4248 21.5002 13.0712 21.5002H10.9284C10.5748 21.5002 10.2855 21.2471 10.2855 20.9377V19.0627ZM3.42836 13.0627C3.42836 12.7534 3.71764 12.5002 4.07122 12.5002H6.21407C6.56764 12.5002 6.85693 12.7534 6.85693 13.0627V14.9377C6.85693 15.2471 6.56764 15.5002 6.21407 15.5002H4.07122C3.71764 15.5002 3.42836 15.2471 3.42836 14.9377V13.0627ZM3.42836 19.0627C3.42836 18.7534 3.71764 18.5002 4.07122 18.5002H6.21407C6.56764 18.5002 6.85693 18.7534 6.85693 19.0627V20.9377C6.85693 21.2471 6.56764 21.5002 6.21407 21.5002H4.07122C3.71764 21.5002 3.42836 21.2471 3.42836 20.9377V19.0627ZM21.4284 3.50024H18.8569V1.25024C18.8569 0.837744 18.4712 0.500244 17.9998 0.500244H16.2855C15.8141 0.500244 15.4284 0.837744 15.4284 1.25024V3.50024H8.57121V1.25024C8.57121 0.837744 8.1855 0.500244 7.71407 0.500244H5.99979C5.52836 0.500244 5.14264 0.837744 5.14264 1.25024V3.50024H2.57121C1.15157 3.50024 -0.000213623 4.50806 -0.000213623 5.75024V8.00024H23.9998V5.75024C23.9998 4.50806 22.848 3.50024 21.4284 3.50024Z" fill="white"/>
</g>
<defs>
<clipPath id="clip0_2288_11341">
<rect width="24" height="24" fill="white" transform="translate(0 0.5)"/>
</clipPath>
</defs>
</svg>
