<svg width="24" height="25" viewBox="0 0 24 25" fill="none" xmlns="http://www.w3.org/2000/svg">
<g clip-path="url(#clip0_2288_11354)">
<g clip-path="url(#clip1_2288_11354)">
<g clip-path="url(#clip2_2288_11354)">
<path d="M23.8095 22.1891L13.0095 1.18906C12.7887 0.759687 12.4084 0.5 12 0.5C11.5917 0.5 11.2114 0.759687 10.9905 1.18906L0.190526 22.1891C0.0739778 22.4157 0.00839913 22.6773 0.000678833 22.9465C-0.00704146 23.2158 0.0433815 23.4826 0.146651 23.7191C0.249969 23.9555 0.402301 24.1527 0.58765 24.2901C0.773 24.4275 0.984529 24.5 1.20003 24.5H22.8C23.2392 24.5 23.643 24.2005 23.8534 23.7186C23.9567 23.4822 24.0071 23.2155 23.9994 22.9463C23.9917 22.6772 23.9261 22.4156 23.8095 22.1891ZM12 4.77406L15.2022 11H12L9.60003 14L8.17278 12.2159L12 4.77406Z" fill="white"/>
</g>
</g>
</g>
<defs>
<clipPath id="clip0_2288_11354">
<rect width="24" height="24" fill="white" transform="translate(0 0.5)"/>
</clipPath>
<clipPath id="clip1_2288_11354">
<rect width="24" height="24" fill="white" transform="translate(0 0.5)"/>
</clipPath>
<clipPath id="clip2_2288_11354">
<rect width="24" height="24" fill="white" transform="translate(0 0.5)"/>
</clipPath>
</defs>
</svg>
