<svg width="24" height="24" viewBox="0 0 24 24" fill="none" xmlns="http://www.w3.org/2000/svg">
<path fill-rule="evenodd" clip-rule="evenodd" d="M23.339 1.5C23.339 0.671573 22.6674 0 21.839 0C21.0106 0 20.339 0.671573 20.339 1.5V22.3695C20.339 23.1979 21.0106 23.8695 21.839 23.8695C22.6674 23.8695 23.339 23.1979 23.339 22.3695V1.5ZM11.6696 6.95658C12.498 6.95658 13.1696 7.62815 13.1696 8.45658V22.3696C13.1696 23.198 12.498 23.8696 11.6696 23.8696C10.8411 23.8696 10.1696 23.198 10.1696 22.3696V8.45658C10.1696 7.62815 10.8411 6.95658 11.6696 6.95658ZM1.5 13.9129C2.32843 13.9129 3 14.5845 3 15.4129L3 22.3694C3 23.1978 2.32843 23.8694 1.5 23.8694C0.671573 23.8694 0 23.1978 0 22.3694V15.4129C0 14.5845 0.671573 13.9129 1.5 13.9129Z" fill="white"/>
</svg>
