<svg width="24" height="25" viewBox="0 0 24 25" fill="none" xmlns="http://www.w3.org/2000/svg">
<g clip-path="url(#clip0_2288_11347)">
<path d="M0.581836 7.43806L11.5009 12.3913C11.8196 12.5362 12.1801 12.5362 12.4989 12.3913L23.4179 7.43806C24.1937 7.08602 24.1937 5.91368 23.4179 5.56165L12.4993 0.607899C12.3427 0.536316 12.1725 0.499268 12.0004 0.499268C11.8282 0.499268 11.658 0.536316 11.5014 0.607899L0.581836 5.56118C-0.193945 5.91321 -0.193945 7.08602 0.581836 7.43806ZM23.4184 11.5762L20.6954 10.342L13.1186 13.7765C12.7642 13.9373 12.3878 14.0188 12.0001 14.0188C11.6125 14.0188 11.2365 13.9373 10.8817 13.7765L3.30527 10.342L0.581836 11.5762C-0.193945 11.9277 -0.193945 13.0996 0.581836 13.4512L11.5009 18.4007C11.8196 18.5451 12.1801 18.5451 12.4989 18.4007L23.4184 13.4512C24.1942 13.0996 24.1942 11.9277 23.4184 11.5762ZM23.4184 17.5668L20.7057 16.3373L13.1186 19.7765C12.7642 19.9373 12.3878 20.0188 12.0001 20.0188C11.6125 20.0188 11.2365 19.9373 10.8817 19.7765L3.29496 16.3373L0.581836 17.5668C-0.193945 17.9184 -0.193945 19.0902 0.581836 19.4418L11.5009 24.3913C11.8196 24.5357 12.1801 24.5357 12.4989 24.3913L23.4184 19.4418C24.1942 19.0902 24.1942 17.9184 23.4184 17.5668Z" fill="white"/>
</g>
<defs>
<clipPath id="clip0_2288_11347">
<rect width="24" height="24" fill="white" transform="translate(0 0.5)"/>
</clipPath>
</defs>
</svg>
